<?xml version="1.0" encoding="UTF-8"?>
<svg xmlns="http://www.w3.org/2000/svg" xmlns:xlink="http://www.w3.org/1999/xlink" width="136.02pt" height="74.61pt" viewBox="0 0 136.02 74.61" version="1.1">
<defs>
<clipPath id="clip1">
  <path d="M 0 0 L 136.019531 0 L 136.019531 66 L 0 66 Z M 0 0 "/>
</clipPath>
<clipPath id="clip2">
  <path d="M 14 55 L 46 55 L 46 74.609375 L 14 74.609375 Z M 14 55 "/>
</clipPath>
</defs>
<g id="surface1">
<g clip-path="url(#clip1)" clip-rule="nonzero">
<path style=" stroke:none;fill-rule:nonzero;fill:rgb(13.699341%,12.199402%,12.5%);fill-opacity:1;" d="M 49.800781 1.324219 C 56.445313 0.316406 63.175781 -0.109375 69.90625 0 C 80.585938 0.171875 91.289063 1.652344 101.519531 4.824219 C 108.433594 6.988281 115.148438 9.914063 121.140625 14.007813 C 125.125 16.742188 128.796875 20.023438 131.578125 23.996094 C 134.078125 27.554688 135.78125 31.769531 136.023438 36.144531 C 136.277344 40.335938 135.1875 44.539063 133.15625 48.183594 C 131.078125 51.9375 128.152344 55.160156 124.871094 57.890625 C 121.09375 61.027344 116.851563 63.578125 112.417969 65.667969 C 112.613281 63.285156 112.828125 60.90625 113.023438 58.523438 C 117.398438 56.738281 121.675781 54.636719 125.488281 51.816406 C 128.417969 49.644531 131.128906 47.019531 132.855469 43.761719 C 134.078125 41.488281 134.710938 38.867188 134.480469 36.277344 C 134.273438 33.789063 133.289063 31.429688 131.917969 29.363281 C 129.5625 25.890625 126.207031 23.207031 122.671875 20.984375 C 116.816406 17.375 110.316406 14.957031 103.71875 13.109375 C 93.199219 10.242188 82.308594 8.917969 71.425781 8.652344 C 64.585938 8.503906 57.734375 8.796875 50.929688 9.5625 C 43.675781 10.402344 36.460938 11.773438 29.472656 13.898438 C 24.46875 15.441406 19.558594 17.363281 14.992188 19.9375 C 11.3125 22.039063 7.773438 24.566406 5.078125 27.882813 C 2.953125 30.496094 1.410156 33.714844 1.386719 37.128906 C 1.3125 39.839844 2.199219 42.5 3.621094 44.78125 C 5.34375 47.566406 7.761719 49.847656 10.363281 51.78125 C 15.066406 55.242188 20.421875 57.6875 25.890625 59.640625 C 24.40625 61.320313 22.925781 63.007813 21.394531 64.660156 C 17.3125 62.519531 13.386719 60.03125 9.9375 56.945313 C 6.667969 54.039063 3.789063 50.589844 1.945313 46.605469 C 0.230469 42.949219 -0.511719 38.828125 0 34.820313 C 0.472656 30.8125 2.152344 27.019531 4.484375 23.765625 C 7.058594 20.15625 10.375 17.117188 13.984375 14.554688 C 18.1875 11.566406 22.804688 9.1875 27.578125 7.242188 C 34.710938 4.375 42.207031 2.480469 49.800781 1.324219 "/>
</g>
<path style=" stroke:none;fill-rule:nonzero;fill:rgb(84.698486%,21.598816%,27.49939%);fill-opacity:1;" d="M 97.136719 22.367188 C 99.175781 21.335938 101.460938 20.835938 103.742188 20.714844 C 106.234375 20.582031 108.832031 20.847656 111.066406 22.039063 C 112.148438 22.585938 113.050781 23.425781 113.914063 24.273438 C 113.925781 23.253906 113.914063 22.234375 113.925781 21.214844 C 116.476563 21.214844 119.027344 21.214844 121.589844 21.214844 C 121.589844 25.101563 121.589844 28.988281 121.589844 32.875 C 118.796875 32.875 116.015625 32.875 113.230469 32.875 C 113.171875 30.957031 112.648438 28.941406 111.238281 27.566406 C 109.730469 26.0625 107.445313 25.648438 105.394531 25.9375 C 103.777344 26.171875 102.347656 27.167969 101.445313 28.515625 C 100.171875 30.421875 99.683594 32.71875 99.453125 34.953125 C 99.222656 37.503906 99.261719 40.105469 99.878906 42.597656 C 100.328125 44.359375 101.152344 46.121094 102.648438 47.226563 C 104.144531 48.34375 106.136719 48.574219 107.945313 48.28125 C 109.210938 48.089844 110.425781 47.457031 111.203125 46.410156 C 112.050781 45.292969 112.355469 43.871094 112.527344 42.5 C 115.613281 42.488281 118.6875 42.5 121.769531 42.488281 C 121.714844 44.636719 121.03125 46.777344 119.730469 48.5 C 118.261719 50.457031 116.085938 51.78125 113.789063 52.546875 C 111.117188 53.457031 108.25 53.675781 105.445313 53.519531 C 101.894531 53.335938 98.265625 52.5 95.335938 50.394531 C 93.585938 49.15625 92.164063 47.46875 91.203125 45.546875 C 90.171875 43.496094 89.652344 41.222656 89.457031 38.953125 C 89.273438 36.605469 89.394531 34.226563 89.929688 31.929688 C 90.4375 29.851563 91.300781 27.835938 92.613281 26.121094 C 93.804688 24.542969 95.359375 23.253906 97.136719 22.367188 "/>
<path style=" stroke:none;fill-rule:nonzero;fill:rgb(84.698486%,21.598816%,27.49939%);fill-opacity:1;" d="M 15.152344 21.214844 C 21.550781 21.214844 27.96875 21.214844 34.371094 21.214844 C 36.996094 21.25 39.753906 21.519531 42.050781 22.902344 C 43.59375 23.824219 44.683594 25.417969 45 27.191406 C 45.402344 29.414063 45.097656 31.867188 43.714844 33.714844 C 42.570313 35.257813 40.761719 36.207031 38.902344 36.582031 C 38.632813 36.644531 38.355469 36.644531 38.113281 36.800781 C 40.09375 36.957031 42.144531 37.53125 43.628906 38.925781 C 45.0625 40.25 45.742188 42.242188 45.753906 44.175781 C 45.816406 46.132813 45.339844 48.195313 44.042969 49.714844 C 42.667969 51.332031 40.601563 52.171875 38.574219 52.59375 C 35.753906 53.191406 32.851563 52.996094 29.996094 53.035156 C 25.050781 53.035156 20.09375 53.035156 15.152344 53.035156 C 15.152344 51.308594 15.113281 49.582031 15.160156 47.855469 C 16.257813 47.855469 17.335938 47.878906 18.429688 47.84375 C 18.417969 40.703125 18.429688 33.558594 18.429688 26.414063 C 17.335938 26.375 16.257813 26.402344 15.160156 26.402344 C 15.113281 24.664063 15.152344 22.9375 15.152344 21.214844 "/>
<path style=" stroke:none;fill-rule:nonzero;fill:rgb(84.698486%,21.598816%,27.49939%);fill-opacity:1;" d="M 45.449219 21.226563 C 51.125 21.203125 56.785156 21.214844 62.460938 21.214844 C 64.390625 28.867188 66.261719 36.546875 68.207031 44.1875 C 68.667969 42.753906 68.972656 41.269531 69.371094 39.8125 C 70.953125 33.617188 72.542969 27.421875 74.125 21.226563 C 79.710938 21.203125 85.289063 21.214844 90.875 21.214844 C 90.875 22.9375 90.902344 24.675781 90.851563 26.402344 C 89.882813 26.390625 88.898438 26.390625 87.910156 26.402344 C 87.902344 33.558594 87.902344 40.703125 87.910156 47.855469 C 88.898438 47.867188 89.882813 47.867188 90.851563 47.855469 C 90.902344 49.582031 90.875 51.308594 90.875 53.019531 C 86.007813 53.035156 81.132813 53.035156 76.261719 53.019531 C 76.261719 51.308594 76.234375 49.582031 76.273438 47.855469 C 77.367188 47.855469 78.449219 47.878906 79.539063 47.84375 C 79.515625 40.824219 79.566406 33.800781 79.515625 26.765625 C 79.359375 27.117188 79.261719 27.496094 79.15625 27.871094 C 76.722656 36.253906 74.28125 44.625 71.863281 53.019531 C 68.972656 53.042969 66.082031 53.019531 63.1875 53.019531 C 60.929688 45.085938 58.65625 37.140625 56.398438 29.195313 C 56.09375 28.261719 55.921875 27.277344 55.535156 26.367188 C 55.484375 33.535156 55.523438 40.703125 55.511719 47.855469 C 56.601563 47.867188 57.683594 47.867188 58.777344 47.855469 C 58.800781 49.582031 58.789063 51.308594 58.789063 53.035156 C 54.34375 53.019531 49.898438 53.035156 45.460938 53.019531 C 45.460938 51.308594 45.449219 49.582031 45.460938 47.867188 C 46.445313 47.855469 47.441406 47.878906 48.441406 47.855469 C 48.441406 40.703125 48.425781 33.558594 48.441406 26.414063 C 47.441406 26.375 46.460938 26.402344 45.460938 26.390625 C 45.449219 24.664063 45.460938 22.949219 45.449219 21.226563 "/>
<path style=" stroke:none;fill-rule:nonzero;fill:rgb(100%,100%,100%);fill-opacity:1;" d="M 27.46875 26.121094 C 28.429688 26.097656 29.402344 26.121094 30.359375 26.121094 C 31.503906 26.121094 32.667969 26.15625 33.75 26.546875 C 34.480469 26.800781 35.136719 27.289063 35.488281 27.980469 C 35.949219 28.867188 35.960938 29.898438 35.863281 30.859375 C 35.753906 31.832031 35.34375 32.816406 34.539063 33.410156 C 33.542969 34.140625 32.28125 34.296875 31.089844 34.359375 C 29.851563 34.382813 28.625 34.359375 27.398438 34.359375 C 27.382813 31.636719 27.371094 28.917969 27.398438 26.207031 L 27.46875 26.121094 "/>
<path style=" stroke:none;fill-rule:nonzero;fill:rgb(13.699341%,12.199402%,12.5%);fill-opacity:1;" d="M 125.296875 27.007813 C 126.523438 26.765625 127.824219 27.59375 128.113281 28.804688 C 128.359375 29.730469 128.019531 30.785156 127.265625 31.371094 C 126.484375 31.988281 125.34375 32.074219 124.492188 31.578125 C 123.667969 31.117188 123.167969 30.15625 123.265625 29.230469 C 123.328125 28.136719 124.226563 27.167969 125.296875 27.007813 "/>
<path style=" stroke:none;fill-rule:nonzero;fill:rgb(100%,100%,100%);fill-opacity:1;" d="M 125.054688 27.578125 C 126.085938 27.167969 127.347656 27.824219 127.628906 28.890625 C 127.945313 29.9375 127.238281 31.140625 126.171875 31.359375 C 125.175781 31.613281 124.066406 30.945313 123.8125 29.9375 C 123.535156 28.988281 124.117188 27.90625 125.054688 27.578125 "/>
<path style=" stroke:none;fill-rule:nonzero;fill:rgb(13.699341%,12.199402%,12.5%);fill-opacity:1;" d="M 124.617188 28.125 C 125.136719 28.136719 125.671875 28.078125 126.195313 28.175781 C 126.609375 28.246094 126.824219 28.710938 126.703125 29.085938 C 126.644531 29.363281 126.363281 29.5 126.144531 29.621094 C 126.464844 29.949219 126.679688 30.351563 126.851563 30.761719 C 126.644531 30.761719 126.449219 30.761719 126.242188 30.777344 C 125.964844 30.339844 125.804688 29.609375 125.152344 29.667969 C 125.152344 30.035156 125.152344 30.398438 125.152344 30.761719 C 124.96875 30.761719 124.785156 30.761719 124.617188 30.761719 C 124.617188 29.886719 124.617188 29 124.617188 28.125 "/>
<path style=" stroke:none;fill-rule:nonzero;fill:rgb(100%,100%,100%);fill-opacity:1;" d="M 125.136719 28.574219 C 125.417969 28.574219 125.699219 28.527344 125.964844 28.613281 C 126.242188 28.683594 126.230469 29.148438 125.9375 29.207031 C 125.6875 29.28125 125.417969 29.257813 125.152344 29.269531 C 125.152344 29.039063 125.152344 28.804688 125.136719 28.574219 "/>
<path style=" stroke:none;fill-rule:nonzero;fill:rgb(100%,100%,100%);fill-opacity:1;" d="M 27.398438 39.28125 C 28.660156 39.269531 29.9375 39.28125 31.210938 39.269531 C 32.476563 39.28125 33.824219 39.402344 34.929688 40.09375 C 35.742188 40.617188 36.230469 41.539063 36.386719 42.488281 C 36.570313 43.566406 36.59375 44.746094 36.09375 45.765625 C 35.660156 46.675781 34.808594 47.335938 33.882813 47.675781 C 32.984375 48.015625 32.039063 48.136719 31.089844 48.125 C 29.863281 48.125 28.625 48.136719 27.398438 48.113281 C 27.382813 45.171875 27.382813 42.21875 27.398438 39.28125 "/>
<path style=" stroke:none;fill-rule:nonzero;fill:rgb(13.699341%,12.199402%,12.5%);fill-opacity:1;" d="M 50.445313 54.746094 C 52.167969 54.734375 53.894531 54.792969 55.617188 54.792969 C 55.414063 55.804688 55.179688 56.796875 54.988281 57.796875 C 53.238281 57.890625 51.488281 57.820313 49.726563 57.867188 C 49.96875 56.835938 50.203125 55.789063 50.445313 54.746094 "/>
<path style=" stroke:none;fill-rule:nonzero;fill:rgb(13.699341%,12.199402%,12.5%);fill-opacity:1;" d="M 84.800781 55.195313 C 85.84375 55.207031 86.890625 55.207031 87.9375 55.230469 C 87.851563 56.007813 87.730469 56.773438 87.65625 57.550781 C 86.597656 57.601563 85.542969 57.601563 84.488281 57.601563 C 84.582031 56.796875 84.695313 55.996094 84.800781 55.195313 "/>
<g clip-path="url(#clip2)" clip-rule="nonzero">
<path style=" stroke:none;fill-rule:nonzero;fill:rgb(13.699341%,12.199402%,12.5%);fill-opacity:1;" d="M 32.074219 55.367188 C 34.671875 55.390625 37.261719 55.402344 39.859375 55.425781 C 41.210938 60.078125 42.472656 64.746094 43.808594 69.386719 C 44.234375 69.347656 44.648438 69.3125 45.074219 69.300781 C 44.890625 70.140625 44.683594 70.976563 44.503906 71.8125 C 40.882813 72.15625 37.261719 72.472656 33.640625 72.8125 C 33.859375 71.914063 34.089844 71.023438 34.335938 70.140625 L 34.40625 70.089844 C 35.304688 69.992188 36.21875 69.980469 37.117188 69.859375 C 36.921875 69.09375 36.777344 68.328125 36.582031 67.5625 C 36.542969 67.550781 36.460938 67.515625 36.421875 67.5 C 33.433594 67.671875 30.457031 67.878906 27.480469 68.050781 C 26.777344 68.9375 26.085938 69.832031 25.40625 70.746094 C 26.460938 70.695313 27.519531 70.585938 28.574219 70.527344 C 28.332031 71.476563 28.066406 72.398438 27.808594 73.347656 C 23.289063 73.785156 18.769531 74.195313 14.25 74.609375 C 15.027344 73.515625 15.867188 72.484375 16.667969 71.414063 C 17.191406 71.367188 17.726563 71.328125 18.261719 71.292969 C 18.40625 71.28125 18.589844 71.292969 18.683594 71.132813 C 23.144531 65.886719 27.601563 60.613281 32.074219 55.367188 "/>
</g>
<path style=" stroke:none;fill-rule:nonzero;fill:rgb(13.699341%,12.199402%,12.5%);fill-opacity:1;" d="M 89.054688 55.4375 C 90.34375 55.425781 91.617188 55.460938 92.894531 55.472656 C 92.519531 58.949219 92.128906 62.421875 91.738281 65.910156 C 92.019531 65.886719 92.3125 65.863281 92.589844 65.851563 C 92.539063 66.382813 92.480469 66.917969 92.417969 67.453125 C 90.792969 67.597656 89.164063 67.757813 87.535156 67.902344 C 87.597656 67.332031 87.667969 66.773438 87.742188 66.214844 C 88.082031 66.191406 88.421875 66.152344 88.75 66.128906 C 89.101563 63.09375 89.492188 60.054688 89.84375 57.003906 C 89.515625 57.003906 89.1875 57.003906 88.859375 56.992188 C 88.945313 56.46875 89.007813 55.960938 89.054688 55.4375 "/>
<path style=" stroke:none;fill-rule:nonzero;fill:rgb(13.699341%,12.199402%,12.5%);fill-opacity:1;" d="M 71.074219 55.695313 C 75.253906 55.730469 79.429688 55.753906 83.597656 55.804688 C 83.503906 56.617188 83.394531 57.441406 83.269531 58.257813 C 83.246094 58.464844 83.039063 58.574219 83.003906 58.765625 C 82.941406 59.070313 82.917969 59.375 82.882813 59.679688 C 82.105469 59.738281 81.316406 59.726563 80.539063 59.75 C 80.636719 59.03125 80.742188 58.316406 80.839844 57.601563 C 79.214844 57.601563 77.585938 57.601563 75.960938 57.636719 C 75.773438 58.960938 75.542969 60.285156 75.347656 61.609375 C 75.933594 61.585938 76.503906 61.597656 77.074219 61.539063 C 77.136719 61.0625 77.210938 60.601563 77.28125 60.140625 C 78 60.128906 78.714844 60.101563 79.445313 60.078125 C 79.199219 61.648438 78.992188 63.214844 78.753906 64.78125 L 78.679688 64.839844 C 77.972656 64.902344 77.257813 64.953125 76.539063 64.964844 C 76.625 64.441406 76.710938 63.90625 76.785156 63.371094 C 76.210938 63.394531 75.652344 63.445313 75.085938 63.445313 C 74.839844 64.660156 74.695313 65.875 74.496094 67.089844 C 75.167969 67.050781 75.835938 66.992188 76.503906 66.945313 C 76.394531 67.609375 76.308594 68.28125 76.1875 68.9375 C 73.699219 69.152344 71.195313 69.398438 68.703125 69.605469 C 68.8125 68.910156 68.949219 68.21875 69.042969 67.515625 C 69.578125 67.453125 70.113281 67.441406 70.636719 67.371094 C 71.171875 64.125 71.71875 60.894531 72.265625 57.660156 C 71.753906 57.660156 71.242188 57.660156 70.746094 57.660156 C 70.851563 57.003906 70.976563 56.347656 71.074219 55.695313 "/>
<path style=" stroke:none;fill-rule:nonzero;fill:rgb(13.699341%,12.199402%,12.5%);fill-opacity:1;" d="M 94.679688 57.332031 C 95.589844 57.015625 96.488281 56.699219 97.414063 56.410156 C 97.351563 57.125 97.269531 57.84375 97.195313 58.574219 C 97.800781 58.585938 98.410156 58.558594 99.015625 58.550781 C 99.015625 59.046875 98.96875 59.53125 98.882813 60.019531 C 98.277344 60.03125 97.667969 60.042969 97.058594 60.066406 C 96.890625 61.78125 96.683594 63.480469 96.574219 65.207031 C 96.476563 65.71875 97.148438 65.957031 97.472656 65.605469 C 97.789063 65.183594 97.714844 64.597656 97.789063 64.113281 C 98.226563 64.089844 98.652344 64.050781 99.078125 64.027344 C 99.015625 64.828125 98.980469 65.691406 98.457031 66.347656 C 97.886719 67.113281 96.878906 67.355469 95.96875 67.394531 C 95.324219 67.417969 94.570313 67.308594 94.167969 66.75 C 93.816406 66.226563 93.828125 65.558594 93.863281 64.953125 C 94.023438 63.347656 94.21875 61.757813 94.375 60.152344 C 94.035156 60.164063 93.710938 60.164063 93.378906 60.175781 C 93.417969 59.667969 93.476563 59.15625 93.535156 58.632813 C 93.878906 58.632813 94.207031 58.621094 94.546875 58.609375 C 94.582031 58.183594 94.632813 57.757813 94.679688 57.332031 "/>
<path style=" stroke:none;fill-rule:nonzero;fill:rgb(13.699341%,12.199402%,12.5%);fill-opacity:1;" d="M 109.914063 59.351563 C 110.195313 58.585938 110.960938 57.988281 111.796875 58.160156 C 111.785156 58.851563 111.710938 59.542969 111.6875 60.25 C 111.019531 60.117188 110.339844 60.40625 109.976563 60.976563 C 109.246094 62.035156 109.441406 63.371094 109.308594 64.585938 C 109.585938 64.5625 109.867188 64.539063 110.15625 64.527344 C 110.132813 64.964844 110.109375 65.414063 110.0625 65.863281 C 108.832031 65.957031 107.605469 66.082031 106.378906 66.191406 C 106.402344 65.730469 106.441406 65.265625 106.476563 64.816406 C 106.707031 64.78125 106.949219 64.753906 107.195313 64.746094 C 107.339844 63.082031 107.4375 61.414063 107.570313 59.765625 C 107.324219 59.765625 107.085938 59.765625 106.855469 59.765625 C 106.878906 59.324219 106.914063 58.875 106.949219 58.4375 C 107.824219 58.425781 108.6875 58.414063 109.5625 58.402344 C 109.527344 58.925781 109.476563 59.457031 109.476563 59.996094 C 109.804688 59.957031 109.792969 59.566406 109.914063 59.351563 "/>
<path style=" stroke:none;fill-rule:nonzero;fill:rgb(13.699341%,12.199402%,12.5%);fill-opacity:1;" d="M 100.328125 59.96875 C 101.304688 58.488281 103.328125 57.867188 104.980469 58.488281 C 105.722656 58.765625 106.234375 59.457031 106.441406 60.210938 C 106.683594 61.050781 106.648438 61.9375 106.574219 62.800781 C 104.980469 62.898438 103.402344 62.992188 101.8125 63.082031 C 101.738281 63.664063 101.714844 64.320313 102.03125 64.855469 C 102.359375 65.375 103.101563 65.398438 103.609375 65.167969 C 103.996094 65.011719 104.191406 64.636719 104.386719 64.292969 C 105.054688 64.273438 105.710938 64.199219 106.367188 64.1875 C 106.101563 65.265625 105.238281 66.152344 104.167969 66.480469 C 103.085938 66.820313 101.847656 66.945313 100.800781 66.433594 C 99.925781 65.996094 99.503906 65.023438 99.414063 64.101563 C 99.261719 62.679688 99.503906 61.160156 100.328125 59.96875 "/>
<path style=" stroke:none;fill-rule:nonzero;fill:rgb(100%,100%,100%);fill-opacity:1;" d="M 34.140625 59.144531 C 34.285156 58.960938 34.382813 58.71875 34.625 58.667969 C 34.746094 58.804688 34.734375 58.996094 34.78125 59.167969 C 35.109375 61.136719 35.464844 63.101563 35.804688 65.074219 C 33.789063 65.183594 31.769531 65.277344 29.753906 65.363281 C 31.1875 63.261719 32.695313 61.222656 34.140625 59.144531 "/>
<path style=" stroke:none;fill-rule:nonzero;fill:rgb(13.699341%,12.199402%,12.5%);fill-opacity:1;" d="M 62.519531 60.785156 C 63.445313 59.242188 65.386719 58.414063 67.136719 58.816406 C 66.929688 59.871094 66.75 60.929688 66.566406 61.984375 C 64.902344 61.539063 63.042969 62.363281 62.132813 63.785156 C 61.667969 64.453125 61.464844 65.230469 61.339844 66.019531 C 61.207031 66.75 61.050781 67.488281 60.929688 68.230469 C 61.535156 68.195313 62.15625 68.132813 62.761719 68.097656 C 62.652344 68.789063 62.507813 69.480469 62.386719 70.175781 C 59.566406 70.453125 56.75 70.707031 53.929688 70.953125 C 54.089844 70.210938 54.234375 69.46875 54.394531 68.726563 C 54.925781 68.691406 55.460938 68.632813 55.996094 68.621094 C 56.53125 66.179688 57.015625 63.710938 57.515625 61.257813 C 56.992188 61.269531 56.46875 61.292969 55.949219 61.304688 C 56.082031 60.601563 56.25 59.910156 56.371094 59.203125 C 58.363281 59.144531 60.359375 59.132813 62.347656 59.105469 C 62.214844 59.871094 62.058594 60.625 61.9375 61.378906 C 62.289063 61.4375 62.347656 61.011719 62.519531 60.785156 "/>
<path style=" stroke:none;fill-rule:nonzero;fill:rgb(13.699341%,12.199402%,12.5%);fill-opacity:1;" d="M 83.246094 58.789063 C 84.667969 58.765625 86.078125 58.742188 87.5 58.730469 C 87.195313 61.246094 86.867188 63.773438 86.5625 66.289063 C 86.867188 66.273438 87.171875 66.253906 87.488281 66.238281 C 87.414063 66.796875 87.339844 67.371094 87.28125 67.925781 C 85.492188 68.085938 83.707031 68.253906 81.933594 68.414063 C 82.007813 67.816406 82.09375 67.234375 82.164063 66.652344 C 82.53125 66.605469 82.894531 66.566406 83.269531 66.554688 C 83.550781 64.527344 83.820313 62.496094 84.085938 60.46875 C 83.734375 60.46875 83.367188 60.480469 83.015625 60.492188 C 83.089844 59.921875 83.171875 59.363281 83.246094 58.789063 "/>
<path style=" stroke:none;fill-rule:nonzero;fill:rgb(13.699341%,12.199402%,12.5%);fill-opacity:1;" d="M 47.648438 59.351563 C 49.992188 59.265625 52.328125 59.265625 54.671875 59.214844 C 54.015625 62.4375 53.300781 65.644531 52.632813 68.851563 C 53.128906 68.824219 53.628906 68.777344 54.125 68.753906 C 53.980469 69.496094 53.820313 70.234375 53.664063 70.976563 C 50.699219 71.242188 47.734375 71.523438 44.769531 71.792969 C 44.953125 70.988281 45.121094 70.1875 45.339844 69.398438 C 45.9375 69.375 46.53125 69.3125 47.128906 69.277344 C 47.722656 66.699219 48.316406 64.113281 48.902344 61.523438 C 48.316406 61.539063 47.722656 61.5625 47.140625 61.5625 C 47.308594 60.820313 47.492188 60.089844 47.648438 59.351563 "/>
<path style=" stroke:none;fill-rule:nonzero;fill:rgb(100%,100%,100%);fill-opacity:1;" d="M 102.625 59.945313 C 103.050781 59.554688 103.839844 59.496094 104.203125 59.996094 C 104.542969 60.503906 104.484375 61.160156 104.460938 61.757813 C 103.609375 61.765625 102.757813 61.839844 101.90625 61.855469 C 101.96875 61.171875 102.101563 60.417969 102.625 59.945313 "/>
</g>
</svg>
