<?xml version="1.0" encoding="UTF-8"?>
<svg xmlns="http://www.w3.org/2000/svg" xmlns:xlink="http://www.w3.org/1999/xlink" width="656.19pt" height="60.08pt" viewBox="0 0 656.19 60.08" version="1.1">
<defs>
<clipPath id="clip1">
  <path d="M 364 0 L 417 0 L 417 60.078125 L 364 60.078125 Z M 364 0 "/>
</clipPath>
<clipPath id="clip2">
  <path d="M 529 0 L 578 0 L 578 60.078125 L 529 60.078125 Z M 529 0 "/>
</clipPath>
<clipPath id="clip3">
  <path d="M 138 0 L 195 0 L 195 60.078125 L 138 60.078125 Z M 138 0 "/>
</clipPath>
<clipPath id="clip4">
  <path d="M 303 0 L 360 0 L 360 60.078125 L 303 60.078125 Z M 303 0 "/>
</clipPath>
<clipPath id="clip5">
  <path d="M 421 0 L 473 0 L 473 60.078125 L 421 60.078125 Z M 421 0 "/>
</clipPath>
<clipPath id="clip6">
  <path d="M 469 0 L 526 0 L 526 60.078125 L 469 60.078125 Z M 469 0 "/>
</clipPath>
<clipPath id="clip7">
  <path d="M 582 0 L 639 0 L 639 60.078125 L 582 60.078125 Z M 582 0 "/>
</clipPath>
<clipPath id="clip8">
  <path d="M 638 0 L 656.191406 0 L 656.191406 18 L 638 18 Z M 638 0 "/>
</clipPath>
<clipPath id="clip9">
  <path d="M 198 0 L 241 0 L 241 60.078125 L 198 60.078125 Z M 198 0 "/>
</clipPath>
<clipPath id="clip10">
  <path d="M 0 0 L 124 0 L 124 60.078125 L 0 60.078125 Z M 0 0 "/>
</clipPath>
<clipPath id="clip11">
  <path d="M 244 0 L 300 0 L 300 60.078125 L 244 60.078125 Z M 244 0 "/>
</clipPath>
</defs>
<g id="surface1">
<g clip-path="url(#clip1)" clip-rule="nonzero">
<path style=" stroke:none;fill-rule:nonzero;fill:rgb(0%,32.156372%,58.430481%);fill-opacity:1;" d="M 412.140625 10.429688 C 412.140625 10.441406 412.140625 10.445313 412.140625 10.453125 L 412.140625 39.460938 C 412.140625 41.628906 411.945313 42.660156 411.425781 42.660156 C 410.902344 42.660156 409.859375 41.628906 408.699219 40.410156 L 373.4375 2.003906 C 372.421875 0.9375 372.484375 0.3125 371.929688 -0.00390625 L 364.367188 -0.00390625 L 364.367188 60.074219 L 368.621094 60.074219 L 368.621094 46.050781 C 368.617188 45.820313 368.597656 45.617188 368.597656 45.375 L 368.597656 15.769531 C 368.597656 14.980469 368.765625 14.371094 369.296875 14.371094 C 369.730469 14.371094 370.28125 14.804688 370.867188 15.488281 L 412.296875 59.929688 L 416.441406 59.929688 C 416.441406 59.761719 416.441406 59.589844 416.441406 59.390625 L 416.441406 10.550781 C 416.441406 10.457031 416.453125 10.382813 416.460938 10.292969 L 416.460938 -0.00390625 L 412.140625 -0.00390625 L 412.140625 10.429688 "/>
</g>
<g clip-path="url(#clip2)" clip-rule="nonzero">
<path style=" stroke:none;fill-rule:nonzero;fill:rgb(0%,32.156372%,58.430481%);fill-opacity:1;" d="M 540.667969 8.464844 C 540.667969 3.296875 543.371094 3.296875 546.582031 3.296875 C 555.375 3.296875 560.242188 9.664063 560.242188 18.117188 C 560.242188 23.207031 559.730469 28.054688 546.5 28.054688 C 543.898438 28.054688 540.667969 28.054688 540.667969 25.878906 Z M 529.933594 9.78125 C 529.941406 10.007813 529.976563 10.207031 529.976563 10.453125 L 529.976563 48.355469 C 529.976563 48.386719 529.972656 48.417969 529.972656 48.449219 L 529.972656 60.074219 L 540.679688 60.074219 L 540.679688 50.65625 C 540.679688 50.601563 540.667969 50.558594 540.667969 50.496094 L 540.667969 35.613281 C 540.667969 32.613281 540.160156 32.019531 544.769531 32.019531 C 548.1875 32.019531 549.890625 32.511719 551.445313 34.574219 L 565.382813 60.074219 L 577.792969 60.074219 L 574.648438 54.324219 C 574.605469 54.203125 574.550781 54.097656 574.503906 54.011719 C 574.355469 53.757813 574.210938 53.496094 574.058594 53.242188 L 561.140625 29.601563 C 561.855469 28.898438 563.867188 28.082031 565.902344 26.484375 C 568.425781 24.40625 570.929688 21.234375 570.929688 15.695313 C 570.929688 12.175781 569.542969 2.125 555.71875 -0.00390625 L 529.933594 -0.00390625 L 529.933594 9.78125 "/>
</g>
<g clip-path="url(#clip3)" clip-rule="nonzero">
<path style=" stroke:none;fill-rule:nonzero;fill:rgb(0%,32.156372%,58.430481%);fill-opacity:1;" d="M 169.902344 42.210938 L 156.339844 42.210938 C 154.535156 42.210938 153.136719 42.308594 153.136719 41.308594 C 153.136719 39.925781 153.75 38.851563 154.226563 37.65625 L 161.921875 20.144531 C 162.417969 19.03125 162.8125 18.9375 163.019531 18.9375 C 163.507813 18.9375 163.230469 18.9375 163.816406 19.734375 L 172 37.65625 C 172.507813 38.851563 173.117188 39.925781 173.117188 41.308594 C 173.117188 42.308594 171.714844 42.210938 169.902344 42.210938 Z M 169.121094 3.410156 C 167.808594 0.414063 167.621094 0.234375 166.722656 0.234375 C 165.425781 0.234375 164.9375 2.113281 164.230469 3.695313 L 138.746094 60.074219 L 145.441406 60.074219 C 145.882813 58.070313 146.742188 55.878906 147.246094 54.453125 C 149.539063 47.953125 151.664063 47.550781 153.332031 47.550781 L 173.011719 47.550781 C 175.601563 47.550781 176.105469 48.546875 179.386719 56.234375 C 180 57.714844 180.464844 58.917969 180.777344 60.074219 L 194.695313 60.074219 L 191.953125 54.667969 L 169.121094 3.410156 "/>
</g>
<g clip-path="url(#clip4)" clip-rule="nonzero">
<path style=" stroke:none;fill-rule:nonzero;fill:rgb(0%,32.156372%,58.430481%);fill-opacity:1;" d="M 335.027344 42.265625 L 321.46875 42.265625 C 319.660156 42.265625 318.265625 42.363281 318.265625 41.363281 C 318.265625 39.984375 318.875 38.910156 319.355469 37.710938 L 327.050781 20.199219 C 327.542969 19.089844 327.9375 18.996094 328.144531 18.996094 C 328.632813 18.996094 328.355469 18.996094 328.941406 19.792969 L 337.125 37.710938 C 337.632813 38.910156 338.246094 39.984375 338.246094 41.363281 C 338.246094 42.363281 336.84375 42.265625 335.027344 42.265625 Z M 334.246094 3.464844 C 332.933594 0.46875 332.75 0.292969 331.847656 0.292969 C 330.550781 0.292969 330.0625 2.167969 329.355469 3.753906 L 303.894531 60.074219 L 310.578125 60.074219 C 311.023438 58.085938 311.871094 55.925781 312.371094 54.511719 C 314.667969 48.007813 316.789063 47.605469 318.457031 47.605469 L 338.136719 47.605469 C 340.726563 47.605469 341.234375 48.601563 344.515625 56.292969 C 345.117188 57.75 345.574219 58.933594 345.886719 60.074219 L 359.792969 60.074219 L 357.082031 54.722656 L 334.246094 3.464844 "/>
</g>
<g clip-path="url(#clip5)" clip-rule="nonzero">
<path style=" stroke:none;fill-rule:nonzero;fill:rgb(0%,32.156372%,58.430481%);fill-opacity:1;" d="M 421.390625 2.421875 L 421.390625 5.292969 L 439.703125 5.292969 C 441.050781 5.71875 441.472656 6.800781 441.472656 9.59375 L 441.472656 49.617188 C 441.472656 49.675781 441.464844 49.714844 441.464844 49.773438 L 441.464844 60.074219 L 452.21875 60.074219 L 452.21875 49.324219 C 452.203125 49.070313 452.167969 48.847656 452.167969 48.578125 L 452.167969 9.59375 C 452.167969 6.800781 452.582031 5.71875 453.9375 5.292969 L 472.058594 5.292969 L 472.058594 -0.00390625 L 421.390625 -0.00390625 L 421.390625 2.421875 "/>
</g>
<g clip-path="url(#clip6)" clip-rule="nonzero">
<path style=" stroke:none;fill-rule:nonzero;fill:rgb(0%,32.156372%,58.430481%);fill-opacity:1;" d="M 500.683594 42.316406 L 487.121094 42.316406 C 485.316406 42.316406 483.917969 42.410156 483.917969 41.410156 C 483.917969 40.035156 484.53125 38.957031 485.011719 37.761719 L 492.707031 20.246094 C 493.199219 19.136719 493.59375 19.042969 493.800781 19.042969 C 494.289063 19.042969 494.007813 19.042969 494.597656 19.839844 L 502.78125 37.761719 C 503.289063 38.957031 503.902344 40.035156 503.902344 41.410156 C 503.902344 42.410156 502.5 42.316406 500.683594 42.316406 Z M 499.902344 3.511719 C 498.589844 0.519531 498.402344 0.339844 497.503906 0.339844 C 496.207031 0.339844 495.71875 2.214844 495.011719 3.800781 L 469.570313 60.074219 L 476.246094 60.074219 C 476.691406 58.101563 477.53125 55.960938 478.023438 54.5625 C 480.324219 48.058594 482.445313 47.652344 484.113281 47.652344 L 503.792969 47.652344 C 506.382813 47.652344 506.890625 48.648438 510.167969 56.339844 C 510.765625 57.773438 511.21875 58.949219 511.527344 60.074219 L 525.425781 60.074219 L 522.734375 54.769531 L 499.902344 3.511719 "/>
</g>
<g clip-path="url(#clip7)" clip-rule="nonzero">
<path style=" stroke:none;fill-rule:nonzero;fill:rgb(0%,32.156372%,58.430481%);fill-opacity:1;" d="M 614.011719 42.222656 L 600.449219 42.222656 C 598.640625 42.222656 597.25 42.316406 597.25 41.320313 C 597.25 39.9375 597.855469 38.863281 598.335938 37.667969 L 606.03125 20.152344 C 606.527344 19.042969 606.925781 18.949219 607.128906 18.949219 C 607.613281 18.949219 607.335938 18.949219 607.921875 19.746094 L 616.109375 37.667969 C 616.617188 38.863281 617.226563 39.9375 617.226563 41.320313 C 617.226563 42.316406 615.824219 42.222656 614.011719 42.222656 Z M 613.230469 3.417969 C 611.917969 0.425781 611.730469 0.246094 610.832031 0.246094 C 609.535156 0.246094 609.042969 2.121094 608.335938 3.707031 L 582.855469 60.074219 L 589.550781 60.074219 C 589.996094 58.074219 590.851563 55.886719 591.355469 54.464844 C 593.648438 47.960938 595.769531 47.5625 597.441406 47.5625 L 617.121094 47.5625 C 619.710938 47.5625 620.210938 48.554688 623.492188 56.246094 C 624.105469 57.71875 624.574219 58.917969 624.882813 60.074219 L 638.796875 60.074219 L 636.0625 54.679688 L 613.230469 3.417969 "/>
</g>
<g clip-path="url(#clip8)" clip-rule="nonzero">
<path style=" stroke:none;fill-rule:nonzero;fill:rgb(0%,32.156372%,58.430481%);fill-opacity:1;" d="M 647.523438 16.179688 C 643.609375 16.179688 640.511719 12.984375 640.511719 9.003906 C 640.511719 5.058594 643.609375 1.878906 647.523438 1.878906 C 651.4375 1.878906 654.542969 5.058594 654.542969 9.003906 C 654.542969 12.984375 651.4375 16.179688 647.523438 16.179688 Z M 647.523438 0.234375 C 642.695313 0.234375 638.84375 4.15625 638.84375 9.003906 C 638.84375 13.898438 642.695313 17.820313 647.523438 17.820313 C 652.367188 17.820313 656.191406 13.898438 656.191406 9.003906 C 656.191406 4.15625 652.367188 0.234375 647.523438 0.234375 "/>
</g>
<path style=" stroke:none;fill-rule:nonzero;fill:rgb(0%,32.156372%,58.430481%);fill-opacity:1;" d="M 647.007813 8.796875 C 646.679688 8.796875 646.488281 8.757813 646.488281 8.59375 L 646.488281 5.261719 C 646.488281 5.140625 646.449219 5.027344 646.617188 5.011719 C 646.792969 4.96875 647.136719 4.96875 647.285156 4.96875 C 648.488281 4.96875 648.949219 5.734375 648.949219 6.808594 C 648.949219 8.132813 648.269531 8.796875 647.007813 8.796875 Z M 648.773438 9.101563 L 648.773438 9.058594 C 649.902344 8.867188 650.964844 7.917969 650.964844 6.671875 C 650.964844 5.96875 650.703125 4.296875 648.230469 4.296875 L 643.464844 4.296875 L 643.464844 4.925781 L 643.847656 4.925781 C 644.195313 4.925781 644.453125 4.894531 644.453125 5.332031 L 644.453125 12.386719 C 644.453125 13.066406 644.195313 13.023438 643.589844 13.023438 L 643.425781 13.023438 L 643.425781 13.574219 L 647.457031 13.574219 L 647.457031 13.023438 L 646.957031 13.023438 C 646.503906 13.023438 646.488281 12.652344 646.488281 12.285156 L 646.488281 9.46875 L 647.199219 9.46875 C 648.523438 9.46875 648.566406 13.574219 650.25 13.574219 L 652.042969 13.574219 L 652.042969 13.023438 C 650.855469 13.023438 650.453125 9.230469 648.773438 9.101563 "/>
<g clip-path="url(#clip9)" clip-rule="nonzero">
<path style=" stroke:none;fill-rule:nonzero;fill:rgb(0%,32.156372%,58.430481%);fill-opacity:1;" d="M 229.582031 54.847656 L 211.304688 54.847656 L 211.304688 54.84375 L 211.269531 54.84375 C 209.921875 54.421875 209.5 53.339844 209.496094 50.542969 L 209.464844 10.519531 C 209.464844 10.464844 209.472656 10.421875 209.472656 10.367188 L 209.460938 0 L 198.769531 0.0078125 L 198.769531 60.074219 L 240.015625 60.074219 L 240.015625 54.882813 L 229.582031 54.882813 L 229.582031 54.847656 "/>
</g>
<path style=" stroke:none;fill-rule:nonzero;fill:rgb(0%,32.156372%,58.430481%);fill-opacity:1;" d="M 297.1875 15.480469 L 297.191406 15.480469 C 297.191406 15.480469 297.191406 15.476563 297.1875 15.476563 L 297.1875 15.480469 "/>
<g clip-path="url(#clip10)" clip-rule="nonzero">
<path style=" stroke:none;fill-rule:nonzero;fill:rgb(0%,32.156372%,58.430481%);fill-opacity:1;" d="M 102.757813 2.839844 L 101.8125 0.429688 C 101.800781 0.390625 101.78125 0.355469 101.765625 0.316406 L 92.132813 0.316406 C 90.828125 1.257813 89.503906 2.453125 88.101563 3.800781 C 86.457031 5.378906 85.507813 6.6875 84.1875 8.398438 C 83.136719 9.777344 105.992188 44.042969 117.640625 60.066406 C 108.890625 50.445313 93.761719 34.269531 90.710938 34.21875 L 63.640625 33.882813 C 63.453125 33.871094 63.351563 33.820313 63.210938 33.679688 C 63.117188 33.601563 63.101563 33.515625 63.046875 33.375 C 62.816406 32.816406 63.496094 32.042969 63.617188 31.894531 C 72.398438 21.613281 79.039063 7.144531 89.90625 0.316406 L 64.738281 0.316406 C 47.324219 12.464844 9.757813 53.691406 0 60.074219 L 41.53125 60.074219 C 48.824219 51.464844 60.269531 36.3125 60.269531 36.3125 C 61.636719 34.585938 64.011719 35.589844 65.5625 36.230469 C 74.78125 40.070313 86.359375 51.988281 93.507813 60.074219 L 117.644531 60.074219 C 117.648438 60.078125 117.648438 60.078125 117.648438 60.078125 L 123.546875 60.078125 L 117.195313 41.859375 L 102.757813 2.839844 "/>
</g>
<g clip-path="url(#clip11)" clip-rule="nonzero">
<path style=" stroke:none;fill-rule:nonzero;fill:rgb(0%,32.156372%,58.430481%);fill-opacity:1;" d="M 298.039063 43.421875 C 295.851563 43.421875 290.152344 54.324219 277.160156 54.324219 C 261.148438 54.324219 254.433594 37.84375 254.433594 26.121094 C 254.433594 14.992188 261.25 3.34375 273.5625 3.34375 C 283.289063 3.34375 290.664063 10.566406 294.863281 18.558594 C 295.433594 19.648438 296.273438 21.25 297.363281 21.378906 C 298.671875 21.53125 298.570313 19.554688 298.378906 18.636719 C 294.789063 7.488281 283.933594 0.015625 273.894531 0.015625 C 252.761719 0.015625 244.125 18.386719 244.125 32.375 C 244.125 38.644531 247.585938 58.332031 269.332031 60.074219 L 275.617188 60.074219 C 291.363281 58.722656 299.222656 47.46875 299.222656 44.335938 C 299.222656 43.832031 298.472656 43.421875 298.039063 43.421875 "/>
</g>
</g>
</svg>
