<?xml version="1.0" encoding="utf-8"?>
<!-- Generator: Adobe Illustrator 19.2.1, SVG Export Plug-In . SVG Version: 6.00 Build 0)  -->
<svg version="1.1" id="layer" xmlns="http://www.w3.org/2000/svg" xmlns:xlink="http://www.w3.org/1999/xlink" x="0px" y="0px"
	 viewBox="0 0 652 652" style="enable-background:new 0 0 652 652;" xml:space="preserve">
<style type="text/css">
	.st0{fill-rule:evenodd;clip-rule:evenodd;fill:#E62C28;}
	.st1{fill-rule:evenodd;clip-rule:evenodd;fill:#233588;}
	.st2{fill:#233588;}
</style>
<path class="st0" d="M222.2,422v15.8h17.6c3.1,0,5.7-0.6,7.6-1.7c2-1.2,3-3.3,3-6.3c0-3.3-1.3-5.5-3.9-6.6c-2.2-0.7-5.1-1.1-8.5-1.1
	H222.2z M222.2,449.7v19.1h17.6c3.1,0,5.6-0.4,7.3-1.3c3.2-1.6,4.8-4.5,4.8-8.9c0-3.7-1.5-6.3-4.6-7.7c-1.7-0.8-4.1-1.2-7.2-1.2
	H222.2z M261.3,417.2c2.2,3,3.3,6.7,3.3,10.9c0,4.4-1.1,7.9-3.3,10.5c-1.2,1.5-3,2.9-5.4,4.1c3.7,1.3,6.4,3.4,8.3,6.3
	c1.9,2.9,2.8,6.4,2.8,10.5c0,4.2-1.1,8.1-3.2,11.4c-1.4,2.2-3.1,4.1-5.1,5.6c-2.3,1.7-5,2.9-8.2,3.6c-3.1,0.7-6.5,1-10.2,1h-32.5
	v-71.6h34.8C251.4,409.7,257.7,412.3,261.3,417.2 M294.5,422v19.2h17c3.4,0,5.9-0.4,7.6-1.2c3-1.4,4.5-4,4.5-8.1
	c0-4.3-1.4-7.3-4.3-8.7c-1.6-0.8-4.1-1.3-7.3-1.3H294.5z M326.5,411.4c2.7,1.1,5,2.8,6.9,5c1.6,1.8,2.8,3.8,3.7,6
	c0.9,2.2,1.4,4.7,1.4,7.5c0,3.4-0.9,6.8-2.6,10.1c-1.7,3.3-4.5,5.6-8.5,7c3.3,1.3,5.6,3.2,7,5.7c1.4,2.4,2.1,6.2,2.1,11.2v4.8
	c0,3.3,0.1,5.5,0.4,6.6c0.4,1.9,1.3,3.2,2.7,4.1v1.8h-16.5c-0.5-1.6-0.8-2.9-1-3.8c-0.4-2-0.6-4.1-0.6-6.2l-0.1-6.6
	c-0.1-4.6-0.9-7.6-2.5-9.1c-1.6-1.5-4.6-2.3-9-2.3h-15.4v28.1h-14.6v-71.6H315C320,409.7,323.8,410.3,326.5,411.4 M370.9,454.1h18.2
	l-8.9-28.2L370.9,454.1z M371.8,409.6h16.9l25.4,71.6h-16.2l-4.6-14.7h-26.4l-5,14.7h-15.6L371.8,409.6z M423.4,409.6h14.7v29.5
	l27.6-29.5h19.3l-29.3,29.5l30.9,42.1h-19.2l-22.1-31.3l-7.1,7.3v23.9h-14.7V409.6z M548,422.3h-37.9v15.2h34.8v12.4h-34.8v18.4
	h39.6v12.9h-54.3v-71.6H548V422.3z M572.2,459.1c0.4,3.3,1.3,5.7,2.7,7.3c2.4,2.9,6.6,4.4,12.5,4.4c3.5,0,6.4-0.4,8.6-1.2
	c4.2-1.5,6.3-4.3,6.3-8.3c0-2.4-1-4.2-3.1-5.5c-2.1-1.3-5.3-2.4-9.8-3.3l-7.6-1.7c-7.4-1.7-12.6-3.5-15.5-5.5
	c-4.8-3.3-7.2-8.5-7.2-15.5c0-6.4,2.3-11.7,7-16c4.7-4.2,11.5-6.4,20.5-6.4c7.6,0,14,2,19.3,6c5.3,4,8.1,9.8,8.4,17.4H600
	c-0.3-4.3-2.1-7.4-5.6-9.2c-2.3-1.2-5.2-1.8-8.7-1.8c-3.9,0-6.9,0.8-9.2,2.3s-3.4,3.7-3.4,6.5c0,2.6,1.1,4.5,3.4,5.7
	c1.5,0.8,4.6,1.8,9.3,3l12.3,3c5.4,1.3,9.5,3,12.2,5.2c4.3,3.4,6.4,8.2,6.4,14.6c0,6.5-2.5,12-7.5,16.3c-5,4.3-12.1,6.5-21.2,6.5
	c-9.3,0-16.7-2.1-22-6.4c-5.3-4.3-8-10.1-8-17.6H572.2z"/>
<path class="st1" d="M266.5,297.3v42.6h55.1c11.1,0,19.1-10.3,19.1-21.5c0-9.8-4.7-21.1-14.4-21.1H266.5z M266.5,216.4v37.7h47.6
	c9.6,0,16.4-9.4,16.4-18.9s-7.2-18.7-16.8-18.7H266.5z M206.2,175v208.7h123.6c36.1,0,72.1-25.2,70.1-61.3
	c-1.4-25.4-15.4-43.9-39.4-52.1c19.3-9.2,29.3-26,28.5-47.4c-1-28.9-28.1-47.6-57-47.6L206.2,175z"/>
<path class="st2" d="M187.2,175.3v43.6H88v34.3h82.9v44.4H87.5v40.2h102.2v46.5H26.8v-209H187.2z M557,243.4h58.6
	c0,0,4.6-73.3-101.3-73.3c-105.9,0-109.7,96.5-109.7,96.5s-13,121,113.1,123c0,0,96.3,0.8,99.2-82.4h-58.2c0,0,0,18.6-11.7,26.9
	c0,0-9.6,14.1-31.4,14.1c0,0-49,3.3-49.4-67.1c0,0-6.7-68,48.6-72.5C514.7,208.6,550.7,205.7,557,243.4 M615,176.1
	c-6.6,0-11.9,5.1-11.9,11.5c0,6.5,5.3,11.6,11.9,11.6c6.7,0,11.8-5,11.8-11.6C626.8,181.2,621.7,176.1,615,176.1L615,176.1z
	 M615,178.4c5.1,0,8.8,4.1,8.8,9.2c0,5.1-3.7,9.3-8.8,9.2c-5.2,0-9-4.1-9-9.2C606.1,182.6,609.9,178.4,615,178.4L615,178.4z
	 M613.2,189h1.3c1.5,0,2.2,0.6,2.4,1.8c0.4,1.3,0.6,2.3,0.9,2.7h2.9c-0.3-0.4-0.5-1.1-0.8-2.8c-0.3-1.5-1-2.5-2.1-2.8v-0.1
	c1.4-0.4,2.4-1.4,2.4-2.7c0-1.1-0.5-2-1.1-2.5c-0.8-0.6-1.8-0.9-4-0.9c-1.9,0-3.4,0.2-4.4,0.4v11.4h2.7V189z M613.3,183.8l1.5-0.1
	c1.7,0,2.5,0.7,2.5,1.8c0,1.2-1.2,1.7-2.7,1.7h-1.3V183.8z"/>
</svg>
