<?xml version="1.0" encoding="utf-8"?>
<!-- Generator: Adobe Illustrator 19.2.1, SVG Export Plug-In . SVG Version: 6.00 Build 0)  -->
<svg version="1.1" id="layer" xmlns="http://www.w3.org/2000/svg" xmlns:xlink="http://www.w3.org/1999/xlink" x="0px" y="0px"
	 viewBox="0 0 652 652" style="enable-background:new 0 0 652 652;" xml:space="preserve">
<style type="text/css">
	.st0{fill:#004377;}
</style>
<g>
	<path class="st0" d="M569.6,316.2c-0.3-5.1-2.9-8.5-7.1-8.9C562.7,313.1,565.3,315.3,569.6,316.2 M558.6,313.6
		c0-2.1,0.7-3.9,1.7-5.2c0.2,4.4,2,7.4,6.4,9.2c0.9,0.4,0.6,1.2-0.1,1.8c-0.7,0.7-1.8,1.1-2.8,1.1
		C561,320.6,558.6,317.4,558.6,313.6 M564,367.6h3c0,0-3.2-16.1-3.2-27.9c0-11,2.8-17.8-3.3-17.8c-5.6,0-8.3,8.5-8.3,13.5
		c0,4.9,1.5,11.9,5.3,20.2C561.4,363.8,564,367.6,564,367.6 M575.7,316.2c0.3-5.1,2.9-8.5,7.1-8.9
		C582.6,313.1,580,315.3,575.7,316.2 M586.7,313.6c0-2.1-0.7-3.9-1.8-5.2c-0.2,4.4-2,7.4-6.4,9.2c-0.9,0.4-0.6,1.2,0.1,1.8
		c0.7,0.7,1.8,1.1,2.8,1.1C584.3,320.6,586.7,317.4,586.7,313.6 M581.3,367.6h-3c0,0,3.2-16.1,3.2-27.9c0-11-2.8-17.8,3.3-17.8
		c5.6,0,8.3,8.5,8.3,13.5c0,4.9-1.5,11.9-5.3,20.2C583.9,363.8,581.3,367.6,581.3,367.6 M556.7,302.1l-39.4,68.2h45.2
		c-0.3,0.7-0.6,1.7-0.6,2.9c0,1.9,0.9,3.4,1.7,4.2l3.1-5.2l3.2,5.2V388h-6.3v-6.5H506l66.6-115.3l66.6,115.3h-57.6v6.5h-6.3v-10.6
		l3.2-5.2l3.1,5.2c0.7-0.8,1.7-2.3,1.7-4.2c0-1.3-0.3-2.2-0.6-2.9h45.2l-39.4-68.2c-4.1,1-14.5,2.6-14.5,14h-1.4h-1.4
		C571.2,304.7,560.9,303.1,556.7,302.1L556.7,302.1z M572.6,274.6l-13.3,23c0.6,0.4,6.3,3.8,13.3,3.8c7,0,12.7-3.4,13.3-3.8
		L572.6,274.6z M572.6,375.9l-3.5-5.6h6.9L572.6,375.9z M572.6,295.2c-4.1,0-6.9,2.7-6.9,2.7s3.7,1.7,6.9,1.7c3.1,0,6.9-1.7,6.9-1.7
		S576.7,295.2,572.6,295.2"/>
	<path class="st0" d="M28.3,323.7c-2.1,0.2-4.2,0.4-6.4,0.4c-2.1,0-4.2-0.3-6.4-0.4v57.8h32.2c-0.2-1.2-0.4-2.5-0.4-3.6
		c0-1.2,0.2-2.5,0.4-3.6c-5.8,0.6-12.1,1.2-19.4,1.2V323.7z"/>
	<path class="st0" d="M58.3,323.7v57.8h32.3c-0.2-1.2-0.4-2.5-0.4-3.6c0-1.2,0.3-2.5,0.4-3.6c-5.2,0.7-10.9,1.1-19.6,1.2v-21.5h8.8
		c3.8,0,7.3,0.3,10.4,0.8c-0.2-1.2-0.4-2.5-0.4-3.6c0-1.2,0.3-2.5,0.4-3.6c-3.1,0.4-6.6,0.8-10.4,0.8h-8.8v-18.2
		c8.7-0.2,14.4,0.5,19.6,1.2c-0.2-1.2-0.4-2.5-0.4-3.6c0-1.2,0.3-2.5,0.4-3.6H58.3z"/>
	<path class="st0" d="M131.4,363.5c-6.7-13.3-13.4-26.6-19.5-39.9c-1.2,0.2-2.4,0.4-3.6,0.4c-1.2,0-2.3-0.2-3.5-0.4
		c-2.9,21.5-5.6,41.1-8.6,58.2c1.4-0.2,2.5-0.4,3.9-0.4c1.4,0,2.6,0.2,4,0.4c0.3-11.9,1.6-23.7,3.6-38.6
		c6.4,13.3,13.1,26.5,18.6,38.2c1.1-0.3,2.1-0.2,3.2,0c6-13.2,12.4-26.1,18.8-39.1c1.3,13.1,3,26,3.6,39.5c2.4-0.2,4.5-0.4,6.9-0.4
		s4.7,0.2,7,0.4c-2.9-16.9-4.8-35.4-7.5-58.2c-1.2,0.2-2.5,0.4-3.6,0.4c-1.2,0-2.4-0.2-3.6-0.4C144.8,338.2,137.6,351.5,131.4,363.5
		"/>
	<path class="st0" d="M188.9,353.8h8.9c3.4,0,6.8,0.4,10.3,0.8c-0.2-1.2-0.4-2.5-0.4-3.6c0-1.2,0.3-2.5,0.4-3.6
		c-3.6,0.4-7,0.8-10.3,0.8h-9v-18.2c8.9,0,14.4,0.6,19.6,1.2c-0.2-1.2-0.4-2.5-0.4-3.6c0-1.2,0.3-2.5,0.4-3.6h-32.3v58.2
		c2.1-0.2,4.2-0.4,6.4-0.4c2.1,0,4.2,0.2,6.4,0.4V353.8z"/>
	<path class="st0" d="M247.8,327.2c12.7,0,17.8,12.6,17.8,23.5c0,14.1-5.9,27.2-18.9,27.2c-12.7,0-17.7-11.7-17.7-22.7
		C229,336.1,236,327.2,247.8,327.2 M279.7,352.3c-0.1-13.1-7.2-30.2-31.4-30.2c-21.1,0-33.4,13.7-33.4,30.5
		c0,19.3,12.6,30.3,31.4,30.3C267.1,383,279.8,368.9,279.7,352.3 M238.3,317.4c3.1,0,5.5-2.5,5.5-5.5c0-3.1-2.5-5.5-5.5-5.5
		c-2.9,0-5.5,2.6-5.5,5.5C232.8,314.7,235.5,317.4,238.3,317.4 M256.2,306.4c-3,0-5.6,2.5-5.6,5.5c0,3,2.5,5.5,5.6,5.5
		c3,0,5.4-2.5,5.4-5.5C261.7,309,259.1,306.4,256.2,306.4"/>
	<path class="st0" d="M301.7,328.3c5.2,0,11.5-0.7,12.9,6.4c0.3,1.8,0.4,3.1,0.4,4.2c0,8.7-4.4,13-13.3,12.1V328.3z M289,381.9
		c2.1-0.2,4.2-0.4,6.4-0.4c2.1,0,4.2,0.2,6.4,0.4v-27.2h0.6c1.9,3.2,4.2,7.1,5.5,9.4l10.1,17.8c2.5-0.2,5.1-0.4,7.6-0.4
		c2.6,0,5.2,0.2,7.7,0.4l-3.3-5.3c-5.1-7.9-10.3-15.7-15-23.8c7.9-1.7,13.2-7,13.2-15.3c0-5.8-2.5-9.6-7.4-12.1
		c-3.6-1.9-9.8-1.7-13.7-1.7H289V381.9z"/>
	<path class="st0" d="M354.4,328.6h8.3c12,0,19.5,6.3,19.5,22.2c0,19.8-8.9,25.7-20.6,25.7h-7.2V328.6z M341.6,323.7v57.8h23.8
		c17.4,0,30.9-11.4,30.9-30.5c0-13.9-7.5-26.6-25.6-27.2H341.6z"/>
	<path class="st0" d="M407,323.7v57.8h32.3c-0.2-1.2-0.4-2.5-0.4-3.6c0-1.2,0.2-2.5,0.4-3.6c-5.2,0.7-10.9,1.1-19.6,1.2v-21.5h8.8
		c3.8,0,7.3,0.3,10.4,0.8c-0.2-1.2-0.4-2.5-0.4-3.6c0-1.2,0.2-2.5,0.4-3.6c-3.1,0.4-6.6,0.8-10.4,0.8h-8.8v-18.2
		c8.7-0.2,14.4,0.5,19.6,1.2c-0.2-1.2-0.4-2.5-0.4-3.6c0-1.2,0.2-2.5,0.4-3.6H407z"/>
	<path class="st0" d="M461.9,328.3c5.2,0,11.5-0.7,12.9,6.4c0.3,1.8,0.4,3.1,0.4,4.2c0,8.7-4.4,13-13.3,12.1V328.3z M449.2,381.9
		c2.1-0.2,4.2-0.4,6.4-0.4c2.1,0,4.2,0.2,6.4,0.4v-27.2h0.6c1.9,3.2,4.2,7.1,5.5,9.4l10.1,17.8c2.5-0.2,5.1-0.4,7.6-0.4
		c2.6,0,5.2,0.2,7.7,0.4l-3.3-5.3c-5.1-7.9-10.4-15.7-15-23.8c7.9-1.7,13.2-7,13.2-15.3c0-5.8-2.5-9.6-7.4-12.1
		c-3.6-1.9-9.8-1.7-13.7-1.7h-18.1V381.9z"/>
</g>
</svg>
