<?xml version="1.0" encoding="UTF-8" standalone="no" ?>
<!DOCTYPE svg PUBLIC "-//W3C//DTD SVG 1.1//EN" "http://www.w3.org/Graphics/SVG/1.1/DTD/svg11.dtd">
<svg xmlns="http://www.w3.org/2000/svg" xmlns:xlink="http://www.w3.org/1999/xlink" version="1.1" width="350" height="350" viewBox="0 0 350 350" xml:space="preserve">
<desc>Created with Fabric.js 1.7.22</desc>
<defs>
</defs>
<g id="icon" style="stroke: none; stroke-width: 1; stroke-dasharray: none; stroke-linecap: butt; stroke-linejoin: miter; stroke-miterlimit: 10; fill: none; fill-rule: nonzero; opacity: 1;" transform="translate(-1.9444444444444287 -1.9444444444444287) scale(3.89 3.89)" >
	<path d="M 53.144 82.338 c -1.656 0 -2.999 -1.343 -3 -2.999 c -0.001 -1.657 1.342 -3 2.999 -3.001 c 1.139 0 2.066 -0.929 2.066 -2.069 c 0 -3.61 2.338 -5.866 4.526 -6.772 c 2.187 -0.908 5.436 -0.968 7.992 1.587 c 0.795 0.797 2.13 0.794 2.925 0.001 l 6.095 -6.095 c 0.396 -0.396 0.605 -0.901 0.605 -1.46 c 0 -0.563 -0.209 -1.067 -0.604 -1.464 c -2.555 -2.556 -2.496 -5.805 -1.59 -7.992 c 0.905 -2.188 3.16 -4.526 6.772 -4.526 c 0.001 0 0.002 0 0.003 0 c 0.559 0 1.064 -0.209 1.461 -0.605 S 84 46.04 84 45.48 v -8.622 c 0 -0.561 -0.209 -1.066 -0.604 -1.462 c -0.396 -0.396 -0.901 -0.605 -1.46 -0.605 h -0.001 c -3.615 0 -5.871 -2.339 -6.776 -4.528 c -0.906 -2.188 -0.964 -5.437 1.59 -7.992 c 0.389 -0.388 0.603 -0.907 0.603 -1.461 c 0 -0.553 -0.214 -1.072 -0.603 -1.459 l -6.096 -6.098 c -0.791 -0.791 -2.129 -0.792 -2.924 0 c -2.556 2.553 -5.801 2.497 -7.992 1.59 c -2.189 -0.907 -4.527 -3.163 -4.527 -6.775 c 0 -1.14 -0.928 -2.067 -2.068 -2.067 H 44.52 c -0.277 0 -0.543 0.052 -0.79 0.154 c -0.249 0.104 -0.475 0.255 -0.671 0.451 c -0.396 0.396 -0.605 0.901 -0.605 1.46 c 0 3.615 -2.339 5.871 -4.528 6.777 c -2.189 0.904 -5.438 0.963 -7.993 -1.592 c -0.805 -0.803 -2.116 -0.802 -2.922 0.003 l -6.098 6.097 c -0.804 0.805 -0.803 2.116 0.002 2.921 c 2.557 2.557 2.497 5.807 1.588 7.995 c -0.905 2.185 -3.161 4.524 -6.774 4.524 c 0 0 -0.001 0 -0.001 0 c -1.136 0.001 -2.064 0.93 -2.065 2.069 c -0.001 1.656 -1.344 2.998 -3 2.998 c -0.001 0 -0.001 0 -0.002 0 c -1.657 -0.001 -2.999 -1.345 -2.998 -3.002 c 0.003 -4.442 3.62 -8.06 8.062 -8.065 c 0.251 0.03 0.896 0.001 1.237 -0.823 c 0.342 -0.822 -0.133 -1.297 -0.289 -1.453 c -3.144 -3.144 -3.145 -8.26 -0.003 -11.405 l 6.101 -6.1 c 3.145 -3.141 8.261 -3.142 11.404 -0.003 c 0.158 0.158 0.633 0.634 1.457 0.292 c 0.823 -0.34 0.823 -1.011 0.823 -1.232 c -0.001 -2.153 0.838 -4.179 2.363 -5.703 c 0.756 -0.756 1.636 -1.346 2.616 -1.751 C 42.41 0.207 43.448 0.001 44.518 0 h 8.625 c 4.45 0.002 8.068 3.622 8.066 8.068 c 0 0.219 0 0.89 0.823 1.231 c 0.825 0.342 1.299 -0.135 1.455 -0.291 c 1.521 -1.521 3.547 -2.36 5.701 -2.361 c 2.157 0 4.184 0.839 5.707 2.364 l 6.095 6.096 c 1.521 1.521 2.36 3.545 2.36 5.702 c 0 2.156 -0.837 4.182 -2.358 5.704 c -0.156 0.157 -0.632 0.632 -0.291 1.456 c 0.341 0.823 1.013 0.823 1.233 0.823 c 0 0 0.002 0 0.003 0 c 2.151 0 4.176 0.839 5.7 2.362 C 89.161 32.677 90 34.703 90 36.858 v 8.622 c 0 2.156 -0.84 4.182 -2.364 5.705 c -1.522 1.523 -3.549 2.362 -5.703 2.362 c -0.235 0.037 -0.892 0.001 -1.23 0.821 c -0.342 0.824 0.133 1.3 0.289 1.455 c 1.524 1.524 2.363 3.551 2.361 5.706 c 0.002 2.152 -0.838 4.179 -2.364 5.703 l -6.095 6.095 c -1.525 1.524 -3.551 2.363 -5.704 2.363 c -2.155 0 -4.182 -0.84 -5.705 -2.365 c -0.154 -0.154 -0.626 -0.629 -1.45 -0.287 c -0.825 0.342 -0.825 1.012 -0.825 1.231 C 61.207 78.718 57.59 82.336 53.144 82.338 L 53.144 82.338 z" style="stroke: none; stroke-width: 1; stroke-dasharray: none; stroke-linecap: butt; stroke-linejoin: miter; stroke-miterlimit: 10; fill: rgb(239,68,68); fill-rule: nonzero; opacity: 1;" transform=" matrix(1 0 0 1 0 0) " stroke-linecap="round" />
	<path d="M 54.998 58.042 c -1.148 0 -2.244 -0.663 -2.742 -1.779 c -0.675 -1.513 0.005 -3.287 1.519 -3.962 c 4.396 -1.961 7.237 -6.331 7.237 -11.132 c 0 -6.716 -5.464 -12.181 -12.18 -12.181 c -4.827 0 -9.206 2.862 -11.156 7.291 c -0.668 1.516 -2.439 2.204 -3.955 1.537 c -1.517 -0.668 -2.204 -2.438 -1.537 -3.955 c 2.909 -6.605 9.443 -10.873 16.647 -10.873 c 10.024 0 18.18 8.156 18.18 18.181 c 0 7.167 -4.236 13.688 -10.794 16.613 C 55.821 57.958 55.406 58.042 54.998 58.042 z" style="stroke: none; stroke-width: 1; stroke-dasharray: none; stroke-linecap: butt; stroke-linejoin: miter; stroke-miterlimit: 10; fill: rgb(239,68,68); fill-rule: nonzero; opacity: 1;" transform=" matrix(1 0 0 1 0 0) " stroke-linecap="round" />
	<path d="M 28.697 90 h -5.216 c -1.62 0 -3.143 -0.631 -4.288 -1.776 c -0.958 -0.958 -1.555 -2.178 -1.726 -3.498 c -2.377 1.825 -5.804 1.65 -7.979 -0.521 l -3.689 -3.69 c -1.146 -1.146 -1.777 -2.668 -1.777 -4.288 c 0 -1.354 0.44 -2.64 1.253 -3.693 C 2.303 72.145 0.001 69.596 0 66.521 l 0 -5.217 c 0.002 -3.075 2.305 -5.624 5.275 -6.014 c -1.825 -2.379 -1.651 -5.806 0.519 -7.979 l 3.691 -3.691 c 2.178 -2.174 5.607 -2.347 7.981 -0.523 c 0.171 -1.32 0.768 -2.54 1.725 -3.497 c 0.569 -0.569 1.231 -1.012 1.968 -1.317 c 0.735 -0.305 1.517 -0.46 2.321 -0.46 h 5.216 c 3.078 0.002 5.625 2.304 6.014 5.275 c 1.056 -0.813 2.34 -1.253 3.692 -1.254 c 1.622 0 3.145 0.631 4.291 1.777 l 3.688 3.688 c 1.144 1.143 1.774 2.665 1.774 4.286 c 0 1.354 -0.439 2.641 -1.252 3.694 c 1.324 0.172 2.544 0.771 3.5 1.729 c 1.143 1.141 1.774 2.664 1.774 4.286 v 5.215 c 0 1.621 -0.631 3.144 -1.776 4.289 c -0.958 0.957 -2.179 1.555 -3.498 1.726 c 0.815 1.058 1.254 2.343 1.253 3.695 c 0 1.62 -0.631 3.144 -1.778 4.288 l -3.686 3.686 c -1.146 1.146 -2.669 1.777 -4.289 1.777 c -1.356 -0.002 -2.641 -0.442 -3.694 -1.254 C 34.318 87.7 31.77 90 28.697 90 z M 17.735 78.305 c 0.81 0 1.57 0.171 2.212 0.438 c 1.676 0.693 3.469 2.423 3.468 5.194 L 28.697 84 c 0.064 -2.834 1.857 -4.563 3.534 -5.258 c 1.679 -0.695 4.17 -0.74 6.126 1.218 l 3.78 -3.688 c -1.959 -2.051 -1.914 -4.542 -1.217 -6.221 c 0.69 -1.673 2.418 -3.468 5.191 -3.468 l 0.065 -5.28 c -2.835 -0.065 -4.564 -1.858 -5.259 -3.536 c -0.694 -1.677 -0.738 -4.167 1.219 -6.125 l -3.688 -3.78 c -2.05 1.959 -4.542 1.913 -6.218 1.219 c -1.678 -0.695 -3.471 -2.425 -3.471 -5.193 l -5.281 -0.065 c -0.064 2.835 -1.857 4.563 -3.536 5.258 c -1.67 0.7 -4.164 0.746 -6.127 -1.22 l -3.779 3.69 c 1.961 2.051 1.915 4.542 1.218 6.22 c -0.693 1.675 -2.422 3.468 -5.192 3.468 L 6 66.52 l 0.064 0.064 c 2.771 0 4.5 1.793 5.195 3.471 c 0.695 1.675 0.741 4.166 -1.219 6.126 l 3.688 3.78 C 14.995 78.75 16.428 78.305 17.735 78.305 z M 6.071 72.584 h 0.01 H 6.071 z" style="stroke: none; stroke-width: 1; stroke-dasharray: none; stroke-linecap: butt; stroke-linejoin: miter; stroke-miterlimit: 10; fill: rgb(239,68,68); fill-rule: nonzero; opacity: 1;" transform=" matrix(1 0 0 1 0 0) " stroke-linecap="round" />
	<path d="M 26.106 76.095 c -4.784 0 -9.331 -2.835 -11.272 -7.521 c -2.57 -6.206 0.387 -13.347 6.593 -15.918 h 0 c 6.208 -2.573 13.348 0.388 15.917 6.593 c 1.244 3.004 1.243 6.314 -0.003 9.324 c -1.247 3.009 -3.586 5.352 -6.589 6.595 C 29.232 75.797 27.656 76.095 26.106 76.095 z M 23.723 58.198 c -3.15 1.305 -4.651 4.929 -3.347 8.078 c 1.306 3.151 4.93 4.651 8.079 3.348 c 1.522 -0.631 2.709 -1.819 3.342 -3.348 c 0.633 -1.529 0.634 -3.209 0.004 -4.731 C 30.497 58.396 26.874 56.895 23.723 58.198 L 23.723 58.198 z" style="stroke: none; stroke-width: 1; stroke-dasharray: none; stroke-linecap: butt; stroke-linejoin: miter; stroke-miterlimit: 10; fill: rgb(239,68,68); fill-rule: nonzero; opacity: 1;" transform=" matrix(1 0 0 1 0 0) " stroke-linecap="round" />
</g>
</svg>